# xmcd CD database file
#
# Track frame offsets:
#	150
#	21155
#	41971
#	60287
#	81090
#	102647
#	121777
#	140781
#	157548
#	172906
#	195187
#	215184
#	234743
#	249851
#	268949
#
# Disc length: 3828 seconds
#
# Revision: 0
# Processed by: cddbd v1.5.2PL0 Copyright (c) Steve Scherf et al.
# Submitted via: CDex 1.70beta2
#
DISCID=c90ef20f
DTITLE=Various Artist - Latin Salsa Party CD1
DYEAR=1900
DGENRE=Salsa
TTITLE0=La Comay
TTITLE1=Castigala
TTITLE2=Celos Por Que
TTITLE3=La Noche
TTITLE4=A Primera Vista
TTITLE5=La Guayaba
TTITLE6=El Guiso
TTITLE7=Dame Un Beso
TTITLE8=Jaque al Rey
TTITLE9=La Tormenta
TTITLE10=La Maquina Del Sabor
TTITLE11=Pa' Eso Bebe
TTITLE12=Otra Botella
TTITLE13=Dime
TTITLE14=Culebra
EXTD=
EXTT0=
EXTT1=
EXTT2=
EXTT3=
EXTT4=
EXTT5=
EXTT6=
EXTT7=
EXTT8=
EXTT9=
EXTT10=
EXTT11=
EXTT12=
EXTT13=
EXTT14=
PLAYORDER=
